<svg width="134" height="100" viewBox="0 0 134 100" fill="none" xmlns="http://www.w3.org/2000/svg">
<circle cx="69" cy="50" r="50" fill="#68B738"/>
<g clip-path="url(#clip0_23_1285)">
<path d="M123.1 25.7999C124.254 23.963 125.789 22.3945 127.6 21.1999C128.6 20.4999 129.2 20.4999 129.8 21.7999C130.6 23.6999 131.3 25.6999 130.7 27.7999C130.591 28.1561 130.57 28.5335 130.64 28.8995C130.71 29.2654 130.867 29.6088 131.1 29.8999C131.7 30.6999 132.2 31.4999 132.7 32.1999C133.38 33.0637 133.822 34.0913 133.98 35.1795C134.138 36.2677 134.007 37.3783 133.6 38.3999C133.233 39.3918 133.163 40.4692 133.4 41.4999C133.6 42.49 133.6 43.5099 133.4 44.4999C133.319 45.2414 133.019 45.9418 132.538 46.5118C132.057 47.0819 131.417 47.4955 130.7 47.6999C129.421 47.9433 128.279 48.6568 127.5 49.6999C127.405 49.8536 127.273 49.9803 127.115 50.0678C126.958 50.1554 126.78 50.2009 126.6 50.1999C125.4 50.3999 122.4 47.6999 122.4 46.4999V45.8999C122.5 42.2999 122.3 41.9999 119 40.4999C118.309 40.2564 117.69 39.8438 117.2 39.2999C116.6 38.4999 115.8 38.5999 114.9 38.8999C114 39.1999 113.5 39.7999 113.6 40.7999C113.901 43.2208 114.002 45.6625 113.9 48.0999C113.907 48.3781 113.975 48.6514 114.1 48.8999C117.2 53.3999 118.4 58.6999 119.9 63.7999C121.1 67.6999 123.3 69.7999 127.3 70.0999C127.94 70.151 128.575 70.2513 129.2 70.3999C130.022 70.532 130.785 70.9075 131.391 71.478C131.997 72.0484 132.418 72.7876 132.6 73.5999C133.3 75.6999 132.9 76.1999 130.8 76.1999H124.3C123.458 76.2425 122.633 75.9555 122 75.3999C120.988 74.5458 119.838 73.8696 118.6 73.3999C117.231 72.8946 116.046 71.9886 115.2 70.7999C114.029 69.1634 112.688 67.6551 111.2 66.2999C108.4 63.3999 105.4 60.5999 102.8 57.5999C100.821 55.5558 99.6789 52.8442 99.5999 49.9999C99.5999 49.0999 99.3999 48.6999 98.3999 49.0999C98.1005 49.2899 97.7545 49.3937 97.3999 49.3999C94.5999 49.3999 93.1999 51.0999 92.1999 53.5999C91.2999 55.6999 90.0999 57.6999 88.9999 59.7999C88.3762 61.1145 88.0355 62.5454 87.9999 63.9999C87.9999 66.3999 88.5999 67.1999 90.7999 67.9999C92.1999 68.4999 93.4999 68.9999 94.1999 70.3999C94.9999 71.9999 94.7999 72.3999 93.0999 72.4999H86.2999C85.9079 72.5388 85.5136 72.4535 85.1727 72.2561C84.8317 72.0587 84.5614 71.7592 84.3999 71.3999L82.5999 68.3999C82.0693 67.6172 81.7296 66.7209 81.6081 65.7831C81.4865 64.8454 81.5865 63.8921 81.8999 62.9999C82.3327 61.2635 82.3669 59.4515 81.9999 57.6999C81.7478 56.4801 81.7696 55.2194 82.0635 54.009C82.3575 52.7985 82.9164 51.6683 83.6999 50.6999C84.2999 49.9999 84.2999 49.6999 83.2999 49.4999C79.2108 48.6313 75.2466 47.2539 71.4999 45.3999C71.4734 45.3999 71.448 45.3894 71.4292 45.3707C71.4105 45.3519 71.3999 45.3265 71.3999 45.2999C68.1999 44.0999 67.5999 44.2999 66.6999 47.5999C65.8999 50.3999 65.0999 53.1999 64.4999 56.0999C63.7999 59.2999 64.5999 62.2999 65.5999 65.2999C65.9999 66.4999 67.1999 66.3999 68.0999 66.6999C70.0999 67.2999 71.7999 68.0999 72.5999 70.1999C73.2999 71.7999 73.1999 71.9999 71.4999 71.9999C69.7999 71.9999 68.0999 71.8999 66.2999 71.9999C64.781 72.0275 63.2985 71.5333 62.0999 70.5999C57.2999 67.3999 55.8999 62.4999 55.4999 57.1999C55.2999 53.8999 53.4999 51.2999 51.3999 48.7999C50.9999 48.2999 50.5999 48.0999 49.9999 48.4999C47.8534 49.6835 45.6124 50.6869 43.2999 51.4999C38.4742 53.2039 34.2395 56.2584 31.0999 60.2999C29.9276 61.7749 29.1683 63.535 28.8999 65.3999C28.5999 67.1999 29.0999 67.9999 30.8999 68.4999C32.6999 68.9999 33.5999 69.9999 33.7999 71.8999C33.8999 72.6999 33.5999 73.0999 32.7999 73.0999H24.6999C24.4348 73.0812 24.1782 72.9986 23.9518 72.8593C23.7255 72.72 23.5362 72.5281 23.3999 72.2999C22.1438 70.7447 21.4716 68.7989 21.4999 66.7999C21.4474 63.3449 21.749 59.8935 22.3999 56.4999C22.5334 55.4836 22.9128 54.5152 23.5053 53.6788C24.0978 52.8423 24.8855 52.1631 25.7999 51.6999C31.6999 48.8999 34.7999 43.5999 37.5999 38.0999C38.1999 36.9999 37.6999 36.7999 36.6999 36.8999C33.9013 37.2885 31.2496 38.3905 28.9999 40.0999C26.0541 42.2488 23.2791 44.6226 20.6999 47.1999C17.9496 49.9936 14.3026 51.7286 10.3999 52.0999C3.09992 52.4999 -0.300081 48.3999 -8.06041e-05 41.7999C0.0669819 39.5495 0.915567 37.3927 2.39992 35.6999C2.91594 35.0309 3.61965 34.5309 4.42119 34.2637C5.22272 33.9966 6.0857 33.9744 6.89992 34.1999C8.39992 34.5999 8.79992 35.3999 8.19992 36.8999C7.89992 37.4999 7.49992 37.9999 7.19992 38.5999C6.76852 39.2129 6.43144 39.8871 6.19992 40.5999C5.09992 43.5999 6.59992 45.6999 9.69992 45.9999C12.9999 46.2999 15.6999 44.8999 18.1999 42.8999C21.2118 40.4882 23.9006 37.6986 26.1999 34.5999C27.9192 32.3374 30.084 30.4512 32.5607 29.0581C35.0375 27.6649 37.7735 26.7943 40.5999 26.4999C42.8999 26.1999 44.8999 25.1999 47.0999 24.5999C51.2144 23.3456 55.4989 22.7383 59.7999 22.7999C61.792 22.8829 63.7765 22.5065 65.5999 21.6999C70.4999 19.6999 75.5999 19.6999 80.6999 20.6999C84.6999 21.4999 88.6999 22.4999 92.5999 23.4999C94.9209 23.9324 97.3074 23.8642 99.5999 23.2999C103.989 22.1875 108.478 21.5175 113 21.2999C115.962 21.1558 118.915 21.7395 121.6 22.9999C123.6 23.8999 123.6 23.8999 123.1 25.7999Z" fill="black"/>
</g>
<defs>
<clipPath id="clip0_23_1285">
<rect width="134" height="56" fill="white" transform="translate(0 20)"/>
</clipPath>
</defs>
</svg>
