<svg width="80" height="80" viewBox="0 0 80 80" fill="none" xmlns="http://www.w3.org/2000/svg">
<rect width="80" height="80" fill="#68B738"/>
<ellipse cx="45.2042" cy="34.3299" rx="1.0873" ry="1.08512" fill="white"/>
<ellipse cx="34.3312" cy="34.3299" rx="1.08731" ry="1.08512" fill="white"/>
<ellipse cx="34.3312" cy="47.3512" rx="1.08731" ry="1.08512" fill="white"/>
<ellipse cx="39.7677" cy="49.5215" rx="1.0873" ry="1.08512" fill="white"/>
<ellipse cx="31.0692" cy="40.7748" rx="1.08731" ry="1.08512" fill="white"/>
<ellipse cx="48.466" cy="40.7748" rx="1.0873" ry="1.08512" fill="white"/>
<ellipse cx="45.2042" cy="47.3512" rx="1.0873" ry="1.08512" fill="white"/>
<mask id="path-9-inside-1_23_1341" fill="white">
<path d="M39.7681 28C46.5235 28.0001 52.0004 33.6477 52.0005 40.6143C52.0005 44.4686 50.3239 47.9195 47.6821 50.2334C47.2229 50.6356 47.1585 51.3478 47.5845 51.7852L48.9409 53.1777C49.1986 53.4424 49.1986 53.8643 48.9409 54.1289C48.6733 54.4037 48.2319 54.4037 47.9644 54.1289L46.1382 52.2539C45.8222 51.9298 45.3295 51.8618 44.9214 52.0576C43.3552 52.809 41.6092 53.2285 39.7681 53.2285C37.8861 53.2285 36.103 52.7909 34.5103 52.0078C34.1004 51.8063 33.6023 51.872 33.2837 52.1992L31.4038 54.1289C31.1362 54.4036 30.6948 54.4037 30.4272 54.1289C30.1698 53.8642 30.1696 53.4423 30.4272 53.1777L31.8618 51.7051C32.2847 51.2706 32.2243 50.5648 31.772 50.1611C29.1776 47.848 27.5356 44.4286 27.5356 40.6143C27.5358 33.6476 33.0125 28 39.7681 28ZM39.7681 29.4014C33.7631 29.4014 28.8951 34.4217 28.895 40.6143C28.895 46.807 33.763 51.8271 39.7681 51.8271C45.773 51.827 50.6411 46.8069 50.6411 40.6143C50.641 34.4217 45.7729 29.4015 39.7681 29.4014ZM39.7896 32.1592C40.2209 32.1592 40.5705 32.5092 40.5708 32.9404V41.123C40.5705 41.5663 40.2113 41.9256 39.7681 41.9258C39.3486 41.9258 39.0083 41.5854 39.0083 41.166V32.9404C39.0086 32.5092 39.3582 32.1592 39.7896 32.1592Z"/>
</mask>
<path d="M39.7681 28C46.5235 28.0001 52.0004 33.6477 52.0005 40.6143C52.0005 44.4686 50.3239 47.9195 47.6821 50.2334C47.2229 50.6356 47.1585 51.3478 47.5845 51.7852L48.9409 53.1777C49.1986 53.4424 49.1986 53.8643 48.9409 54.1289C48.6733 54.4037 48.2319 54.4037 47.9644 54.1289L46.1382 52.2539C45.8222 51.9298 45.3295 51.8618 44.9214 52.0576C43.3552 52.809 41.6092 53.2285 39.7681 53.2285C37.8861 53.2285 36.103 52.7909 34.5103 52.0078C34.1004 51.8063 33.6023 51.872 33.2837 52.1992L31.4038 54.1289C31.1362 54.4036 30.6948 54.4037 30.4272 54.1289C30.1698 53.8642 30.1696 53.4423 30.4272 53.1777L31.8618 51.7051C32.2847 51.2706 32.2243 50.5648 31.772 50.1611C29.1776 47.848 27.5356 44.4286 27.5356 40.6143C27.5358 33.6476 33.0125 28 39.7681 28ZM39.7681 29.4014C33.7631 29.4014 28.8951 34.4217 28.895 40.6143C28.895 46.807 33.763 51.8271 39.7681 51.8271C45.773 51.827 50.6411 46.8069 50.6411 40.6143C50.641 34.4217 45.7729 29.4015 39.7681 29.4014ZM39.7896 32.1592C40.2209 32.1592 40.5705 32.5092 40.5708 32.9404V41.123C40.5705 41.5663 40.2113 41.9256 39.7681 41.9258C39.3486 41.9258 39.0083 41.5854 39.0083 41.166V32.9404C39.0086 32.5092 39.3582 32.1592 39.7896 32.1592Z" fill="white"/>
<path d="M39.7681 28L39.7681 24H39.7681V28ZM52.0005 40.6143H56.0005V40.6142L52.0005 40.6143ZM47.6821 50.2334L50.3177 53.2424L50.3177 53.2424L47.6821 50.2334ZM47.5845 51.7852L44.7188 54.5758L44.7191 54.5762L47.5845 51.7852ZM48.9409 53.1777L51.8066 50.3871L51.8063 50.3867L48.9409 53.1777ZM48.9409 54.1289L51.8066 56.9196L51.8071 56.9191L48.9409 54.1289ZM47.9644 54.1289L50.8301 51.3382L50.8298 51.338L47.9644 54.1289ZM46.1382 52.2539L49.0037 49.463L49.0026 49.462L46.1382 52.2539ZM44.9214 52.0576L43.1915 48.451L43.1912 48.4512L44.9214 52.0576ZM39.7681 53.2285V57.2285H39.7681L39.7681 53.2285ZM34.5103 52.0078L32.7454 55.5974L32.7455 55.5975L34.5103 52.0078ZM33.2837 52.1992L36.1489 54.9904L36.1494 54.9899L33.2837 52.1992ZM31.4038 54.1289L28.5386 51.3377L28.5385 51.3378L31.4038 54.1289ZM30.4272 54.1289L27.56 56.9179L27.5615 56.9196L30.4272 54.1289ZM30.4272 53.1777L27.562 50.3866L27.5616 50.3871L30.4272 53.1777ZM31.8618 51.7051L34.7271 54.4962L34.7282 54.495L31.8618 51.7051ZM31.772 50.1611L34.4351 47.1765L34.4339 47.1755L31.772 50.1611ZM27.5356 40.6143L23.5356 40.6142V40.6143H27.5356ZM39.7681 29.4014L39.7682 25.4014H39.7681V29.4014ZM28.895 40.6143L24.895 40.6142V40.6143H28.895ZM39.7681 51.8271V55.8271H39.7682L39.7681 51.8271ZM50.6411 40.6143H54.6411V40.6142L50.6411 40.6143ZM39.7896 32.1592L39.7896 28.1592H39.7896V32.1592ZM40.5708 32.9404H44.5708V32.938L40.5708 32.9404ZM40.5708 41.123L44.5708 41.1254V41.123H40.5708ZM39.7681 41.9258V45.9258H39.7699L39.7681 41.9258ZM39.0083 32.9404L35.0083 32.938V32.9404H39.0083ZM39.7681 28L39.768 32C44.1994 32.0001 48.0004 35.7401 48.0005 40.6143L52.0005 40.6143L56.0005 40.6142C56.0003 31.5552 48.8476 24.0002 39.7681 24L39.7681 28ZM52.0005 40.6143H48.0005C48.0005 43.2907 46.8403 45.6534 45.0466 47.2244L47.6821 50.2334L50.3177 53.2424C53.8074 50.1857 56.0005 45.6465 56.0005 40.6143H52.0005ZM47.6821 50.2334L45.0466 47.2244C43.0511 48.9722 42.5246 52.3227 44.7188 54.5758L47.5845 51.7852L50.4502 48.9945C51.7925 50.3729 51.3947 52.2991 50.3177 53.2424L47.6821 50.2334ZM47.5845 51.7852L44.7191 54.5762L46.0756 55.9687L48.9409 53.1777L51.8063 50.3867L50.4498 48.9941L47.5845 51.7852ZM48.9409 53.1777L46.0752 55.9684C44.8201 54.6795 44.8211 52.6265 46.0748 51.3387L48.9409 54.1289L51.8071 56.9191C53.5761 55.102 53.5772 52.2052 51.8066 50.3871L48.9409 53.1777ZM48.9409 54.1289L46.0752 51.3383C47.3779 50.0005 49.5274 50.0006 50.8301 51.3382L47.9644 54.1289L45.0987 56.9196C46.9365 58.8068 49.9688 58.8068 51.8066 56.9196L48.9409 54.1289ZM47.9644 54.1289L50.8298 51.338L49.0037 49.463L46.1382 52.2539L43.2727 55.0448L45.0989 56.9198L47.9644 54.1289ZM46.1382 52.2539L49.0026 49.462C47.3887 47.8061 45.0141 47.5768 43.1915 48.451L44.9214 52.0576L46.6512 55.6642C45.645 56.1469 44.2558 56.0534 43.2737 55.0459L46.1382 52.2539ZM44.9214 52.0576L43.1912 48.4512C42.1507 48.9504 40.9945 49.2285 39.768 49.2285L39.7681 53.2285L39.7681 57.2285C42.2239 57.2285 44.5598 56.6676 46.6516 55.6641L44.9214 52.0576ZM39.7681 53.2285V49.2285C38.5135 49.2285 37.3327 48.9382 36.275 48.4182L34.5103 52.0078L32.7455 55.5975C34.8732 56.6435 37.2586 57.2285 39.7681 57.2285V53.2285ZM34.5103 52.0078L36.2751 48.4182C34.4488 47.5203 32.048 47.7347 30.418 49.4086L33.2837 52.1992L36.1494 54.9899C35.1566 56.0093 33.752 56.0923 32.7454 55.5974L34.5103 52.0078ZM33.2837 52.1992L30.4185 49.408L28.5386 51.3377L31.4038 54.1289L34.269 56.9201L36.1489 54.9904L33.2837 52.1992ZM31.4038 54.1289L28.5385 51.3378C29.8407 50.0011 31.9898 50.0001 33.293 51.3383L30.4272 54.1289L27.5615 56.9196C29.3998 58.8072 32.4318 58.8061 34.2691 56.92L31.4038 54.1289ZM30.4272 54.1289L33.2945 51.3399C34.5458 52.6263 34.5493 54.6783 33.2929 55.9684L30.4272 53.1777L27.5616 50.3871C25.7899 52.2063 25.7938 55.1022 27.56 56.9179L30.4272 54.1289ZM30.4272 53.1777L33.2925 55.9689L34.7271 54.4962L31.8618 51.7051L28.9966 48.9139L27.562 50.3866L30.4272 53.1777ZM31.8618 51.7051L34.7282 54.495C36.9061 52.2575 36.4027 48.9323 34.4351 47.1765L31.772 50.1611L29.1088 53.1457C28.0459 52.1973 27.6633 50.2838 28.9954 48.9151L31.8618 51.7051ZM31.772 50.1611L34.4339 47.1755C32.6719 45.6045 31.5356 43.263 31.5356 40.6143H27.5356H23.5356C23.5356 45.5941 25.6833 50.0916 29.11 53.1468L31.772 50.1611ZM27.5356 40.6143L31.5356 40.6143C31.5357 35.7399 35.3367 32 39.7681 32V28V24C30.6883 24 23.5358 31.5552 23.5356 40.6142L27.5356 40.6143ZM39.7681 29.4014V25.4014C31.4388 25.4014 24.8952 32.3295 24.895 40.6142L28.895 40.6143L32.895 40.6143C32.8951 36.5138 36.0875 33.4014 39.7681 33.4014V29.4014ZM28.895 40.6143H24.895C24.895 48.8992 31.4388 55.8271 39.7681 55.8271V51.8271V47.8271C36.0873 47.8271 32.895 44.7148 32.895 40.6143H28.895ZM39.7681 51.8271L39.7682 55.8271C48.0972 55.827 54.6411 48.8992 54.6411 40.6143H50.6411H46.6411C46.6411 44.7146 43.4487 47.8271 39.768 47.8271L39.7681 51.8271ZM50.6411 40.6143L54.6411 40.6142C54.6409 32.3295 48.0972 25.4016 39.7682 25.4014L39.7681 29.4014L39.768 33.4014C43.4486 33.4015 46.641 36.514 46.6411 40.6143L50.6411 40.6143ZM39.7896 32.1592L39.7895 36.1592C38.0093 36.1592 36.5719 34.7164 36.5708 32.9429L40.5708 32.9404L44.5708 32.938C44.5692 30.3019 42.4324 28.1592 39.7896 28.1592L39.7896 32.1592ZM40.5708 32.9404H36.5708V41.123H40.5708H44.5708V32.9404H40.5708ZM40.5708 41.123L36.5708 41.1207C36.5719 39.3572 38.0012 37.9266 39.7663 37.9258L39.7681 41.9258L39.7699 45.9258C42.4214 45.9246 44.5692 43.7753 44.5708 41.1254L40.5708 41.123ZM39.7681 41.9258V37.9258C41.5578 37.9258 43.0083 39.3763 43.0083 41.166H39.0083H35.0083C35.0083 43.7946 37.1395 45.9258 39.7681 45.9258V41.9258ZM39.0083 41.166H43.0083V32.9404H39.0083H35.0083V41.166H39.0083ZM39.0083 32.9404L43.0083 32.9429C43.0072 34.7164 41.5698 36.1592 39.7896 36.1592V32.1592V28.1592C37.1467 28.1592 35.0099 30.3019 35.0083 32.938L39.0083 32.9404Z" fill="white" mask="url(#path-9-inside-1_23_1341)"/>
<rect x="39" y="29" width="4" height="1.5" transform="rotate(-90 39 29)" fill="white"/>
<rect x="32" y="25" width="15.5" height="1.5" rx="0.75" fill="white"/>
</svg>
